HIERARCHY
ROOT hip
{
  OFFSET 0.0 0.0 0.0
  CHANNELS 6 Xposition Yposition Zposition Zrotation Yrotation Xrotation
  JOINT abdomen
  {
    OFFSET 0.0 20.6881 -0.73152
    CHANNELS 3 Zrotation Xrotation Yrotation
    JOINT chest
    {
      OFFSET 0.0 11.7043 -0.48768
      CHANNELS 3 Zrotation Xrotation Yrotation
      JOINT neck
      {
        OFFSET 0.0 22.1894 -2.19456
        CHANNELS 3 Zrotation Xrotation Yrotation
        JOINT head
        {
          OFFSET -0.24384 7.07133 1.2192
          CHANNELS 3 Zrotation Xrotation Yrotation
          JOINT leftEye
          {
            OFFSET 4.14528 8.04674 8.04672
            CHANNELS 3 Zrotation Xrotation Yrotation
            End Site
            {
              OFFSET 1.0 0.0 0.0
            }
          }
          JOINT rightEye
          {
            OFFSET -3.6576 8.04674 8.04672
            CHANNELS 3 Zrotation Xrotation Yrotation
            End Site
            {
              OFFSET 1.0 0.0 0.0
            }
          }
        }
      }
      JOINT rCollar
      {
        OFFSET -2.68224 19.2634 -4.8768
        CHANNELS 3 Zrotation Xrotation Yrotation
        JOINT rShldr
        {
          OFFSET -8.77824 -1.95073 1.46304
          CHANNELS 3 Zrotation Xrotation Yrotation
          JOINT rForeArm
          {
            OFFSET -28.1742 -1.7115 0.48768
            CHANNELS 3 Zrotation Xrotation Yrotation
            JOINT rHand
            {
              OFFSET -22.5879 0.773209 7.07136
              CHANNELS 3 Zrotation Xrotation Yrotation
              JOINT rThumb1
              {
                OFFSET -1.2192 -0.487915 3.41376
                CHANNELS 3 Zrotation Xrotation Yrotation
                JOINT rThumb2
                {
                  OFFSET -3.37035 -0.52449 3.41376
                  CHANNELS 3 Zrotation Xrotation Yrotation
                  End Site
                  {
                    OFFSET -1.78271 -1.18214 1.43049
                  }
                }
              }
              JOINT rIndex1
              {
                OFFSET -7.75947 0.938293 5.60832
                CHANNELS 3 Zrotation Xrotation Yrotation
                JOINT rIndex2
                {
                  OFFSET -2.54057 -0.884171 1.56538
                  CHANNELS 3 Zrotation Xrotation Yrotation
                  End Site
                  {
                    OFFSET -1.62519 -0.234802 1.16502
                  }
                }
              }
              JOINT rMid1
              {
                OFFSET -8.24714 1.18213 3.41376
                CHANNELS 3 Zrotation Xrotation Yrotation
                JOINT rMid2
                {
                  OFFSET -3.10165 -0.590103 1.0647
                  CHANNELS 3 Zrotation Xrotation Yrotation
                  End Site
                  {
                    OFFSET -2.48547 -0.328903 0.83742
                  }
                }
              }
              JOINT rRing1
              {
                OFFSET -8.82822 0.546677 1.51678
                CHANNELS 3 Zrotation Xrotation Yrotation
                JOINT rRing2
                {
                  OFFSET -2.60934 -0.819778 -0.0198488
                  CHANNELS 3 Zrotation Xrotation Yrotation
                  End Site
                  {
                    OFFSET -2.33842 -0.294052 0.168128
                  }
                }
              }
              JOINT rPinky1
              {
                OFFSET -8.27202 -0.0477905 -0.4584
                CHANNELS 3 Zrotation Xrotation Yrotation
                JOINT rPinky2
                {
                  OFFSET -1.82734 -0.647385 -0.700984
                  CHANNELS 3 Zrotation Xrotation Yrotation
                  End Site
                  {
                    OFFSET -1.69225 -0.51767 -0.607171
                  }
                }
              }
            }
          }
        }
      }
      JOINT lCollar
      {
        OFFSET 2.68224 19.2634 -4.8768
        CHANNELS 3 Zrotation Xrotation Yrotation
        JOINT lShldr
        {
          OFFSET 8.77824 -1.95073 1.46304
          CHANNELS 3 Zrotation Xrotation Yrotation
          JOINT lForeArm
          {
            OFFSET 28.1742 -1.7115 0.48768
            CHANNELS 3 Zrotation Xrotation Yrotation
            JOINT lHand
            {
              OFFSET 22.5879 0.773209 7.07136
              CHANNELS 3 Zrotation Xrotation Yrotation
              JOINT lThumb1
              {
                OFFSET 1.2192 -0.487915 3.41376
                CHANNELS 3 Zrotation Xrotation Yrotation
                JOINT lThumb2
                {
                  OFFSET 3.37035 -0.52449 3.41376
                  CHANNELS 3 Zrotation Xrotation Yrotation
                  End Site
                  {
                    OFFSET 1.78271 -1.18214 1.43049
                  }
                }
              }
              JOINT lIndex1
              {
                OFFSET 7.75947 0.938293 5.60832
                CHANNELS 3 Zrotation Xrotation Yrotation
                JOINT lIndex2
                {
                  OFFSET 2.54057 -0.884171 1.56538
                  CHANNELS 3 Zrotation Xrotation Yrotation
                  End Site
                  {
                    OFFSET 1.62519 -0.234802 1.16502
                  }
                }
              }
              JOINT lMid1
              {
                OFFSET 8.24714 1.18213 3.41376
                CHANNELS 3 Zrotation Xrotation Yrotation
                JOINT lMid2
                {
                  OFFSET 3.10165 -0.590103 1.0647
                  CHANNELS 3 Zrotation Xrotation Yrotation
                  End Site
                  {
                    OFFSET 2.48547 -0.328903 0.83742
                  }
                }
              }
              JOINT lRing1
              {
                OFFSET 8.82822 0.546677 1.51678
                CHANNELS 3 Zrotation Xrotation Yrotation
                JOINT lRing2
                {
                  OFFSET 2.60934 -0.819778 -0.0198488
                  CHANNELS 3 Zrotation Xrotation Yrotation
                  End Site
                  {
                    OFFSET 2.33842 -0.294052 0.168128
                  }
                }
              }
              JOINT lPinky1
              {
                OFFSET 8.27202 -0.0477905 -0.4584
                CHANNELS 3 Zrotation Xrotation Yrotation
                JOINT lPinky2
                {
                  OFFSET 1.82734 -0.647385 -0.700984
                  CHANNELS 3 Zrotation Xrotation Yrotation
                  End Site
                  {
                    OFFSET 1.69225 -0.51767 -0.607171
                  }
                }
              }
            }
          }
        }
      }
    }
  }
  JOINT rButtock
  {
    OFFSET -8.77824 4.35084 1.2192
    CHANNELS 3 Zrotation Xrotation Yrotation
    JOINT rThigh
    {
      OFFSET 0.0 -1.70687 -2.19456
      CHANNELS 3 Zrotation Xrotation Yrotation
      JOINT rShin
      {
        OFFSET 0.0 -36.8199 0.73152
        CHANNELS 3 Zrotation Xrotation Yrotation
        JOINT rFoot
        {
          OFFSET 0.73152 -45.1104 -5.12064
          CHANNELS 3 Zrotation Xrotation Yrotation
          End Site
          {
            OFFSET -1.1221 -3.69964 12.103
          }
        }
      }
    }
  }
  JOINT lButtock
  {
    OFFSET 8.77824 4.35084 1.2192
    CHANNELS 3 Zrotation Xrotation Yrotation
    JOINT lThigh
    {
      OFFSET 0.0 -1.70687 -2.19456
      CHANNELS 3 Zrotation Xrotation Yrotation
      JOINT lShin
      {
        OFFSET 0.0 -36.8199 0.73152
        CHANNELS 3 Zrotation Xrotation Yrotation
        JOINT lFoot
        {
          OFFSET -0.73152 -45.1104 -5.12064
          CHANNELS 3 Zrotation Xrotation Yrotation
          End Site
          {
            OFFSET 1.1221 -3.69964 12.103
          }
        }
      }
    }
  }
}
MOTION
Frames: 6
Frame Time: 0.00833333
0.277192 83.0629 -114.166 6.5223 8.6472 5.4254 6.78145 10.5616 -6.25454 3.81099 -1.65078 -1.46498 7.86996 -6.61365 0.502343 -19.3496 7.89278 -0.779511 -0.0 0.0 0.0 -0.0 0.0 0.0 1.45734e-14 -6.34791e-15 6.95746e-16 12.724 -27.1206 -9.48008 -14.281 -7.18339 26.1212 -0.020053 -4.03934 -0.568643 1.57914e-10 4.88489e-10 3.65144e-10 2.71318e-10 8.46466e-10 6.33219e-10 1.57919e-10 4.88489e-10 3.65137e-10 7.73091 5.47488 0.417314 1.57912e-10 4.88492e-10 3.6514e-10 2.90554 0.965183 0.102902 1.57922e-10 4.88492e-10 3.65138e-10 10.2786 0.731801 0.0259123 1.57911e-10 4.88493e-10 3.6514e-10 2.22167 -0.733487 -0.20892 1.43509e-14 -6.3747e-15 1.49089e-16 -21.0309 -23.9626 3.12534 14.96 -7.7558 -27.5064 0.0045895 1.93399 -0.271908 1.2153e-09 8.48435e-10 8.68307e-10 2.10409e-09 1.46881e-09 1.49867e-09 1.2153e-09 8.48436e-10 8.68314e-10 -7.73091 5.47488 -0.417314 1.2153e-09 8.48438e-10 8.68304e-10 -2.90554 0.965183 -0.102902 1.2153e-09 8.48437e-10 8.68303e-10 -10.2786 0.731801 -0.0259123 1.2153e-09 8.48439e-10 8.68304e-10 -2.22167 -0.733487 0.20892 -2.03217e-16 0.0 -3.88251e-19 -7.46898 -31.7934 0.246488 -0.356467 40.1552 0.548899 -4.43647 -3.48043 -24.2105 2.03217e-16 0.0 3.88251e-19 4.34884 -4.75649 -1.32925 0.445919 44.6784 -0.813303 0.775968 22.6007 -1.74409
0.369868 83.1216 -113.702 6.81 8.8281 5.2278 7.09889 10.5634 -6.30835 3.89701 -1.70767 -1.46585 7.86701 -6.49403 0.448526 -19.9111 7.83407 -0.843301 -0.0 0.0 0.0 -0.0 0.0 0.0 9.11739e-14 2.06293e-14 7.64657e-14 12.9855 -26.9201 -9.52137 -14.315 -7.21136 26.1899 -0.0203798 -4.06885 -0.572815 1.32355e-09 3.51046e-10 4.48234e-10 2.28545e-09 6.09292e-10 7.78381e-10 1.32356e-09 3.51045e-10 4.48227e-10 7.73091 5.47488 0.417314 1.32355e-09 3.51048e-10 4.48231e-10 2.90554 0.965183 0.102902 1.32356e-09 3.51048e-10 4.48228e-10 10.2786 0.731801 0.0259123 1.32355e-09 3.51049e-10 4.48231e-10 2.22167 -0.733487 -0.20892 9.0975e-14 2.05934e-14 7.59416e-14 -20.6942 -23.843 3.37809 14.988 -7.77998 -27.5639 0.00456872 1.9282 -0.271094 2.22168e-09 1.17123e-09 1.18095e-09 3.84406e-09 2.02799e-09 2.03542e-09 2.22168e-09 1.17123e-09 1.18096e-09 -7.73091 5.47488 -0.417314 2.22168e-09 1.17124e-09 1.18095e-09 -2.90554 0.965183 -0.102902 2.22168e-09 1.17124e-09 1.18095e-09 -10.2786 0.731801 -0.0259123 2.22168e-09 1.17124e-09 1.18095e-09 -2.22167 -0.733487 0.20892 -2.03217e-16 0.0 -3.88251e-19 -7.56952 -31.2011 0.507644 -0.354238 40.215 0.556294 -4.61662 -3.68456 -24.7416 2.03217e-16 0.0 3.88251e-19 4.19674 -5.13794 -1.29875 0.465018 45.4351 -0.840879 0.909109 22.3465 -2.2316
0.461073 83.1743 -113.239 7.0918 8.9991 5.0162 7.38435 10.5858 -6.36687 3.97808 -1.77795 -1.4682 7.91146 -6.36747 0.412985 -20.5221 7.76984 -0.886625 -0.0 0.0 0.0 -0.0 0.0 0.0 1.78112e-13 5.61806e-14 2.02863e-13 13.3036 -26.7167 -9.53678 -14.3488 -7.23936 26.2585 -0.0203246 -4.06173 -0.57181 2.92984e-09 5.42716e-11 7.18874e-10 5.06098e-09 9.68503e-11 1.24836e-09 2.92985e-09 5.42681e-11 7.18867e-10 7.73091 5.47488 0.417314 2.92984e-09 5.42701e-11 7.1887e-10 2.90554 0.965183 0.102902 2.92985e-09 5.42705e-11 7.18868e-10 10.2786 0.731801 0.0259123 2.92984e-09 5.42716e-11 7.1887e-10 2.22167 -0.733487 -0.20892 1.77967e-13 5.61326e-14 2.02409e-13 -20.3419 -23.706 3.64778 15.0196 -7.8073 -27.6289 0.00465972 1.94703 -0.273743 3.33631e-09 1.33127e-09 1.67514e-09 5.77117e-09 2.30531e-09 2.8857e-09 3.3363e-09 1.33127e-09 1.67514e-09 -7.73091 5.47488 -0.417314 3.33631e-09 1.33127e-09 1.67513e-09 -2.90554 0.965183 -0.102902 3.3363e-09 1.33128e-09 1.67514e-09 -10.2786 0.731801 -0.0259123 3.33631e-09 1.33128e-09 1.67513e-09 -2.22167 -0.733487 0.20892 -2.03217e-16 0.0 -3.88251e-19 -7.68397 -30.5949 0.761109 -0.351702 40.2784 0.565759 -4.80287 -3.90237 -25.2441 2.03217e-16 0.0 3.88251e-19 4.02014 -5.48799 -1.27626 0.484003 46.1641 -0.868162 1.0053 21.8913 -2.6367
0.555196 83.2245 -112.781 7.3847 9.1733 4.8031 7.67007 10.6115 -6.42986 4.05424 -1.84751 -1.4719 7.94825 -6.24156 0.37322 -21.1484 7.70709 -0.935593 -0.0 0.0 0.0 -0.0 0.0 0.0 2.50394e-13 8.59166e-14 3.2332e-13 13.6655 -26.4959 -9.52052 -14.3776 -7.2632 26.3169 -0.0199118 -4.02126 -0.566093 4.36811e-09 -2.82197e-10 9.99526e-10 7.54626e-09 -4.84383e-10 1.73533e-09 4.36812e-09 -2.82203e-10 9.9952e-10 7.73091 5.47488 0.417314 4.36811e-09 -2.82202e-10 9.99523e-10 2.90554 0.965183 0.102902 4.36812e-09 -2.82202e-10 9.99519e-10 10.2786 0.731801 0.0259123 4.36811e-09 -2.822e-10 9.99522e-10 2.22167 -0.733487 -0.20892 2.50309e-13 8.58582e-14 3.22952e-13 -20.0126 -23.5315 3.91466 15.0526 -7.83588 -27.6968 0.00482259 1.98132 -0.278568 4.17216e-09 1.3216e-09 2.10074e-09 7.21613e-09 2.28872e-09 3.6184e-09 4.17216e-09 1.32161e-09 2.10075e-09 -7.73091 5.47488 -0.417314 4.17216e-09 1.32161e-09 2.10074e-09 -2.90554 0.965183 -0.102902 4.17215e-09 1.32161e-09 2.10075e-09 -10.2786 0.731801 -0.0259123 4.17216e-09 1.32161e-09 2.10074e-09 -2.22167 -0.733487 0.20892 -2.03217e-16 0.0 -3.88251e-19 -7.79762 -29.979 0.992268 -0.3491 40.3306 0.57539 -4.98613 -4.12046 -25.7083 2.03217e-16 0.0 3.88251e-19 3.85022 -5.82204 -1.24931 0.503054 46.8615 -0.894268 1.05978 21.3182 -2.93409
0.64292 83.2742 -112.324 7.6472 9.3483 4.5841 7.9882 10.6229 -6.49708 4.12555 -1.90222 -1.47683 7.92252 -6.12391 0.30675 -21.7559 7.65281 -1.0163 -0.0 0.0 0.0 -0.0 0.0 0.0 2.83028e-13 9.54477e-14 3.81269e-13 14.0583 -26.2433 -9.46694 -14.3963 -7.2787 26.3549 -0.0191811 -3.95071 -0.556127 5.0297e-09 -5.38722e-10 1.11265e-09 8.68966e-09 -9.27933e-10 1.93148e-09 5.02971e-09 -5.3873e-10 1.11265e-09 7.73091 5.47488 0.417314 5.0297e-09 -5.38728e-10 1.11265e-09 2.90554 0.965183 0.102902 5.0297e-09 -5.38729e-10 1.11265e-09 10.2786 0.731801 0.0259123 5.02969e-09 -5.38727e-10 1.11265e-09 2.22167 -0.733487 -0.20892 2.8298e-13 9.53856e-14 3.80971e-13 -19.7452 -23.2994 4.15896 15.0848 -7.86386 -27.7633 0.00501657 2.02192 -0.284282 4.34223e-09 1.13528e-09 2.20765e-09 7.5097e-09 1.96617e-09 3.80243e-09 4.34223e-09 1.13528e-09 2.20766e-09 -7.73091 5.47488 -0.417314 4.34224e-09 1.13528e-09 2.20765e-09 -2.90554 0.965183 -0.102902 4.34222e-09 1.13528e-09 2.20766e-09 -10.2786 0.731801 -0.0259123 4.34223e-09 1.13528e-09 2.20765e-09 -2.22167 -0.733487 0.20892 -2.03217e-16 0.0 -3.88251e-19 -7.89498 -29.3575 1.18691 -0.34665 40.3565 0.583269 -5.15672 -4.32577 -26.1246 2.03217e-16 0.0 3.88251e-19 3.71846 -6.1555 -1.20544 0.522281 47.5234 -0.918257 1.07229 20.7102 -3.10003
0.7234 83.3251 -111.869 7.8803 9.5151 4.3619 8.34965 10.618 -6.57145 4.19591 -1.93797 -1.48355 7.82338 -6.02283 0.20608 -22.366 7.61451 -1.13755 -0.0 0.0 0.0 -0.0 0.0 0.0 2.63734e-13 7.33914e-14 3.39758e-13 14.4821 -25.9714 -9.3768 -14.4075 -7.28795 26.3779 -0.0184064 -3.86406 -0.543894 4.51644e-09 -6.79062e-10 9.10718e-10 7.8033e-09 -1.1715e-09 1.58098e-09 4.51645e-09 -6.79069e-10 9.10712e-10 7.73091 5.47488 0.417314 4.51645e-09 -6.79067e-10 9.10717e-10 2.90554 0.965183 0.102902 4.51645e-09 -6.79069e-10 9.10714e-10 10.2786 0.731801 0.0259123 4.51644e-09 -6.79066e-10 9.10718e-10 2.22167 -0.733487 -0.20892 2.6369e-13 7.33364e-14 3.39504e-13 -19.5481 -22.9959 4.38375 15.1198 -7.89446 -27.8355 0.00523176 2.06402 -0.290206 3.49718e-09 7.01391e-10 1.76624e-09 6.04749e-09 1.21494e-09 3.04181e-09 3.49717e-09 7.01393e-10 1.76625e-09 -7.73091 5.47488 -0.417314 3.49718e-09 7.01389e-10 1.76624e-09 -2.90554 0.965183 -0.102902 3.49717e-09 7.01392e-10 1.76624e-09 -10.2786 0.731801 -0.0259123 3.49718e-09 7.01391e-10 1.76624e-09 -2.22167 -0.733487 0.20892 -2.03217e-16 0.0 -3.88251e-19 -7.96185 -28.7254 1.34863 -0.344516 40.3511 0.588668 -5.31053 -4.5105 -26.496 2.03217e-16 0.0 3.88251e-19 3.6368 -6.48469 -1.14153 0.54156 48.1502 -0.939485 1.04014 20.0625 -3.11085
